<!DOCTYPE svg PUBLIC "-//W3C//DTD SVG 20010904//EN" "http://www.w3.org/TR/2001/REC-SVG-20010904/DTD/svg10.dtd">
<svg version="1.0" xmlns="http://www.w3.org/2000/svg" width="333px" height="333px" viewBox="0 0 3330 3330" preserveAspectRatio="xMidYMid meet">
<g id="layer101" fill="#c1bfc2" stroke="none">
 <path d="M1225 3320 c-38 -4 -97 -11 -130 -15 -328 -36 -458 -79 -539 -178 -45 -55 -142 -258 -228 -477 -105 -265 -133 -349 -192 -560 -15 -52 -31 -111 -37 -130 -44 -154 -99 -487 -99 -605 0 -185 47 -256 351 -540 57 -53 94 -86 228 -201 37 -31 218 -169 281 -214 206 -146 547 -345 647 -379 90 -30 226 -29 319 3 85 29 302 151 519 292 67 43 237 165 245 174 3 4 30 25 60 47 204 150 570 501 618 592 86 163 84 312 -10 741 -11 52 -26 113 -33 135 -7 22 -20 69 -30 105 -76 280 -182 562 -318 842 -68 141 -77 156 -128 195 -89 69 -226 109 -489 143 -47 7 -114 16 -150 22 -80 13 -788 19 -885 8z m895 -74 c382 -46 531 -85 609 -159 39 -37 126 -213 221 -447 98 -243 187 -518 235 -730 9 -41 21 -88 26 -105 11 -40 34 -158 54 -281 22 -134 10 -238 -40 -344 -32 -66 -53 -92 -184 -220 -312 -307 -658 -566 -1046 -785 -178 -100 -234 -118 -355 -113 -107 5 -147 20 -325 122 -411 237 -728 478 -1046 795 -223 223 -241 275 -195 551 80 473 205 880 412 1339 145 324 178 339 844 395 111 9 672 -3 790 -18z"/>
 <path d="M1602 3218 c-7 -7 -12 -18 -12 -25 0 -21 -54 -15 -73 7 -20 24 -31 25 -51 4 -9 -9 -16 -11 -16 -4 0 6 -12 10 -27 8 -25 -3 -28 -7 -26 -38 l3 -35 -17 28 c-31 48 -72 30 -74 -32 l-2 -36 -6 35 c-5 27 -11 36 -30 38 -13 2 -27 0 -32 -5 -4 -4 1 -46 12 -92 11 -46 18 -85 17 -86 -2 -1 -18 -7 -35 -13 -43 -14 -56 5 -14 21 32 12 40 34 20 54 -8 8 -19 9 -37 2 -17 -6 -29 -6 -35 0 -7 7 -1 14 21 22 34 12 39 25 19 52 -11 16 -15 16 -65 -5 -28 -12 -52 -28 -52 -35 0 -7 11 -41 25 -75 14 -34 23 -64 20 -66 -3 -3 -5 -2 -5 2 0 4 -9 2 -20 -4 -11 -6 -20 -17 -20 -25 0 -8 -4 -15 -10 -15 -15 0 -12 9 10 37 55 70 -25 158 -98 107 -29 -20 -32 -94 -4 -94 24 0 42 19 35 36 -3 8 1 14 11 14 21 0 20 -9 -4 -40 -11 -14 -20 -35 -20 -48 0 -28 42 -72 68 -72 26 0 72 37 73 58 0 11 2 12 6 5 2 -7 10 -13 18 -13 18 0 105 40 105 48 0 4 12 8 27 9 38 2 53 28 53 92 l0 55 36 -58 c33 -52 39 -57 63 -51 14 4 29 9 33 13 4 4 -2 43 -12 87 -10 44 -17 81 -16 83 2 1 21 -36 42 -83 37 -83 63 -110 86 -87 13 13 57 170 58 205 0 29 -25 38 -48 15z"/>
 <path d="M1667 3224 c-4 -4 -7 -56 -7 -116 l0 -108 53 0 c71 0 97 19 97 70 0 22 -7 45 -16 55 -15 14 -14 18 2 43 l18 27 9 -50 c23 -137 28 -154 48 -160 10 -4 23 -4 28 -1 11 7 111 181 111 194 0 19 -41 21 -60 2 -20 -20 -70 -16 -70 5 0 20 -26 36 -67 40 -45 4 -69 -7 -79 -37 -7 -22 -8 -21 -14 7 -5 29 -36 46 -53 29z m83 -150 c0 -8 -7 -14 -15 -14 -8 0 -15 9 -15 20 0 13 5 18 15 14 8 -4 15 -12 15 -20z"/>
 <path d="M1995 3103 c-15 -43 -28 -91 -29 -108 -2 -43 33 -46 81 -6 20 17 38 29 40 27 2 -1 -2 -17 -8 -35 -14 -41 -5 -63 23 -59 16 2 27 14 35 38 11 34 12 34 12 7 1 -45 29 -87 68 -103 60 -26 140 8 97 41 -10 8 -31 15 -46 15 -31 0 -58 23 -58 50 0 42 63 67 90 36 10 -13 7 -13 -19 -3 -23 8 -34 8 -42 0 -20 -20 -2 -42 56 -70 65 -32 75 -26 75 45 0 98 -117 146 -186 77 -28 -28 -29 -26 -9 22 11 27 12 39 4 49 -18 22 -39 17 -87 -23 -41 -33 -44 -34 -36 -12 4 13 8 38 9 54 0 23 -5 31 -21 33 -18 3 -25 -8 -49 -75z"/>
 <path d="M1620 2850 c-364 -118 -605 -256 -813 -467 l-77 -79 -25 -110 c-29 -128 -55 -345 -55 -459 0 -100 25 -318 46 -399 18 -71 59 -130 160 -229 140 -138 352 -278 544 -359 117 -49 259 -98 283 -98 51 0 317 106 457 182 224 123 476 347 521 465 37 98 61 388 47 583 -10 144 -23 230 -53 345 l-24 90 -94 91 c-144 139 -305 247 -497 333 -76 34 -345 132 -358 130 -4 0 -32 -9 -62 -19z m208 -96 c275 -98 481 -218 650 -379 l100 -96 21 -89 c45 -190 64 -491 43 -655 -4 -27 -7 54 -7 180 0 233 -11 340 -50 489 -17 66 -33 88 -137 184 -176 163 -367 270 -669 372 l-97 33 -123 -42 c-310 -107 -597 -285 -730 -453 -35 -45 -61 -125 -82 -258 -4 -22 -4 -21 -5 5 -1 17 9 74 22 127 21 90 27 102 72 150 132 142 285 250 489 346 97 45 329 131 358 131 9 1 75 -20 145 -45z m4 -68 c267 -95 468 -217 632 -384 53 -55 60 -66 77 -138 59 -245 65 -510 18 -759 -38 -194 -398 -467 -795 -600 l-80 -27 -91 30 c-256 86 -479 219 -644 382 -98 98 -124 139 -144 230 -26 115 -32 435 -11 575 27 178 44 234 88 286 87 104 284 245 448 322 107 51 317 126 352 126 15 1 82 -19 150 -43z m-1095 -723 c-3 -10 -5 -2 -5 17 0 19 2 27 5 18 2 -10 2 -26 0 -35z m-5 -283 c2 -118 0 -197 -4 -175 -4 22 -6 130 -6 240 1 250 6 218 10 -65z m1884 -308 c-10 -44 -27 -79 -56 -117 -55 -72 -179 -189 -262 -248 -74 -53 -238 -150 -244 -144 -2 2 34 24 79 50 159 88 306 209 398 325 59 74 71 102 86 197 5 33 9 42 11 25 1 -14 -4 -54 -12 -88z m-1818 -87 c14 -22 69 -83 122 -135 147 -148 342 -271 570 -360 159 -61 189 -67 257 -46 53 17 161 59 256 100 20 9 37 14 37 11 0 -9 -108 -55 -235 -100 l-120 -43 -95 33 c-333 114 -593 280 -763 488 -53 63 -66 87 -76 134 -6 31 -11 66 -10 77 0 12 7 -10 15 -49 9 -38 27 -88 42 -110z"/>
 <path d="M1550 2641 c-208 -75 -301 -127 -257 -144 6 -3 -5 -3 -25 0 -32 5 -46 -1 -105 -41 -97 -66 -193 -148 -193 -167 0 -28 137 -40 213 -18 30 8 53 7 107 -7 64 -17 71 -17 129 -1 39 11 68 14 79 9 36 -19 83 -21 125 -7 40 13 48 13 95 -5 58 -22 109 -25 162 -10 26 7 47 6 87 -7 48 -15 59 -15 101 -3 30 9 83 13 148 11 108 -3 184 11 184 34 0 18 -99 105 -183 162 -52 35 -74 44 -95 39 -15 -3 -21 -3 -14 0 6 3 12 10 12 16 0 25 -382 179 -441 177 -13 0 -71 -17 -129 -38z m-61 -130 c10 -7 8 -9 -10 -9 -13 0 -35 -3 -49 -6 -20 -6 -19 -4 5 8 37 18 37 18 54 7z m-111 -28 c-10 -2 -28 -2 -40 0 -13 2 -5 4 17 4 22 1 32 -1 23 -4z m460 -10 c-16 -2 -40 -2 -55 0 -16 2 -3 4 27 4 30 0 43 -2 28 -4z"/>
 <path d="M911 2235 c-28 -33 -58 -126 -45 -146 6 -11 1614 -12 1631 -1 18 12 -13 125 -43 153 -23 21 -24 21 -88 5 -71 -18 -141 -20 -197 -7 -25 6 -43 4 -60 -5 -30 -16 -115 -18 -158 -3 -24 8 -47 8 -89 0 -48 -9 -67 -8 -117 6 -33 9 -73 15 -90 14 -32 -4 -117 -4 -175 -1 -19 0 -67 -2 -105 -5 -54 -5 -80 -3 -108 9 -27 11 -45 13 -63 6 -32 -13 -189 -13 -231 -1 -29 9 -35 6 -62 -24z"/>
 <path d="M883 2023 l-41 -4 -8 -77 c-12 -111 -9 -354 5 -442 18 -110 29 -139 77 -202 131 -169 398 -344 672 -438 l93 -32 106 37 c272 93 510 246 649 416 62 76 76 112 94 246 16 113 9 447 -9 481 -11 20 -18 22 -106 22 -72 0 -97 -4 -110 -16 -13 -14 -15 -47 -14 -239 1 -123 5 -228 8 -234 4 -5 45 -11 91 -13 l85 -3 3 -49 3 -49 -28 7 c-15 4 -64 10 -108 13 -76 5 -90 2 -279 -53 -109 -32 -203 -63 -210 -69 -6 -7 -29 -82 -50 -168 l-39 -157 -83 0 -83 0 -10 38 c-24 91 -71 282 -71 287 0 5 -149 51 -309 95 -97 27 -126 31 -190 27 -42 -3 -88 -8 -103 -12 -28 -7 -28 -7 -28 44 l0 51 90 0 90 0 0 244 c0 213 -2 245 -16 250 -16 6 -96 6 -171 -1z"/>
 <path d="M1085 2020 c-12 -19 5 -28 107 -60 57 -18 136 -43 176 -56 68 -23 87 -24 315 -24 l242 0 180 58 c124 40 180 62 180 72 0 13 -83 15 -597 18 -393 1 -599 -1 -603 -8z"/>
 <path d="M1160 1776 c0 -69 3 -127 8 -129 4 -3 25 -2 47 2 l40 6 3 114 c3 127 1 131 -60 131 l-38 0 0 -124z"/>
 <path d="M2118 1893 c-16 -4 -18 -18 -18 -119 0 -126 -3 -121 75 -127 l30 -2 0 125 0 125 -35 2 c-19 0 -43 -1 -52 -4z"/>
 <path d="M1310 1776 c0 -41 3 -77 8 -80 4 -2 23 -1 42 3 34 6 35 9 38 56 5 81 -2 95 -48 95 l-40 0 0 -74z"/>
 <path d="M1974 1837 c-3 -8 -4 -40 -2 -72 3 -55 5 -59 32 -66 46 -13 57 4 54 80 l-3 66 -38 3 c-25 2 -39 -1 -43 -11z"/>
 <path d="M1472 1821 c-9 -5 -12 -24 -10 -52 l3 -44 218 -3 218 -2 -3 52 -3 53 -205 2 c-113 2 -211 -1 -218 -6z"/>
 <path d="M1415 1660 c-11 -5 -87 -30 -170 -56 -147 -46 -175 -58 -163 -70 12 -11 1189 -7 1200 4 8 8 7 13 -3 16 -8 3 -92 30 -187 60 l-173 56 -242 -1 c-133 0 -251 -4 -262 -9z"/>
 <path d="M1260 1436 c0 -14 13 -19 186 -67 l81 -23 32 -126 c18 -69 37 -142 42 -162 l10 -38 73 0 72 0 33 128 c18 70 36 143 42 163 7 28 16 38 37 43 15 4 75 21 135 39 183 53 163 57 -318 57 -362 0 -425 -2 -425 -14z"/>
 <path d="M569 2641 c-32 -32 -33 -59 -3 -90 11 -12 16 -12 28 -1 14 11 16 9 16 -13 0 -30 42 -67 75 -67 30 0 63 28 70 60 8 35 -30 86 -52 69 -7 -7 -13 -22 -11 -33 1 -12 -2 -23 -7 -26 -5 -3 -8 14 -7 40 3 49 -11 71 -56 85 -17 5 -29 -1 -53 -24z"/>
 <path d="M2733 2652 c-10 -9 -37 -49 -61 -89 -37 -61 -42 -75 -32 -93 17 -31 30 -21 76 53 l41 66 19 -25 c13 -18 24 -23 37 -19 23 10 21 29 -9 81 -28 48 -44 54 -71 26z"/>
 <path d="M476 2504 c-30 -54 -32 -70 -10 -78 26 -10 33 -7 47 20 9 17 17 23 21 16 4 -6 1 -20 -5 -30 -7 -11 -9 -27 -6 -36 10 -24 42 -19 57 9 8 15 17 22 23 16 5 -5 4 -18 -3 -31 -15 -27 -6 -50 19 -50 13 0 28 16 45 46 14 26 26 50 26 55 0 7 -171 109 -183 109 -3 0 -17 -21 -31 -46z"/>
 <path d="M416 2384 c-11 -28 -7 -35 27 -49 l32 -14 -35 -1 c-44 0 -57 -9 -65 -43 l-7 -27 60 6 59 7 32 -47 c27 -38 35 -45 47 -35 20 16 17 46 -7 80 l-21 29 26 -11 c32 -15 56 -6 56 21 0 16 -19 30 -82 60 -90 44 -113 48 -122 24z"/>
 <path d="M2828 2358 c-75 -35 -88 -44 -88 -65 0 -13 6 -26 14 -29 16 -6 196 75 196 88 0 14 -20 48 -28 47 -4 0 -46 -19 -94 -41z"/>
 <path d="M2872 2284 c-12 -8 -22 -22 -22 -29 0 -12 -10 -13 -45 -8 -38 5 -45 3 -45 -11 0 -23 36 -56 63 -57 20 -1 19 -2 -5 -11 -31 -11 -35 -25 -15 -52 12 -16 18 -15 102 15 50 17 94 35 98 39 12 11 -12 85 -35 110 -22 24 -65 26 -96 4z m65 -61 c4 -11 -26 -27 -35 -19 -2 3 -2 12 2 21 6 18 27 16 33 -2z"/>
 <path d="M374 2202 c-31 -24 -44 -55 -44 -99 0 -45 20 -77 60 -98 78 -40 160 17 160 111 0 28 -8 44 -34 70 -28 28 -41 34 -77 34 -27 0 -53 -7 -65 -18z m102 -67 c24 -36 6 -75 -34 -75 -34 0 -52 16 -52 46 0 52 58 71 86 29z"/>
 <path d="M2987 2122 c-14 -3 -16 -10 -11 -38 4 -20 2 -34 -4 -34 -5 0 -12 14 -15 30 -5 24 -12 30 -32 30 -22 0 -25 -4 -25 -35 0 -43 -14 -45 -29 -5 -10 30 -25 37 -48 22 -9 -6 -9 -21 0 -67 14 -68 5 -64 123 -46 102 15 103 16 98 59 -12 84 -18 93 -57 84z"/>
 <path d="M300 1952 c0 -26 4 -30 38 -36 20 -3 56 -6 78 -6 40 0 42 -1 40 -32 -1 -30 -7 -34 -74 -64 -83 -36 -95 -45 -90 -70 2 -13 32 -29 97 -55 l94 -36 -80 -12 c-95 -15 -106 -21 -101 -52 3 -22 7 -24 46 -21 36 2 42 0 42 -17 0 -15 -9 -22 -36 -27 -31 -6 -35 -10 -32 -33 3 -23 7 -26 38 -25 49 1 162 22 171 31 5 5 6 19 2 32 -5 20 -10 23 -44 18 -31 -4 -38 -2 -42 14 -4 14 1 21 21 25 54 12 53 11 46 66 -4 35 -13 58 -25 67 -25 18 -25 67 0 74 15 3 19 18 25 82 4 43 3 81 -1 85 -4 5 -54 11 -110 15 l-103 7 0 -30z"/>
 <path d="M2888 1937 c-49 -42 -61 -93 -33 -147 49 -94 189 -70 210 36 8 38 -16 98 -44 114 -40 21 -54 -13 -27 -64 25 -48 -7 -91 -57 -78 -26 7 -42 45 -28 68 9 16 10 13 11 -19 0 -34 3 -38 23 -35 20 3 22 9 25 76 l3 72 -28 0 c-15 0 -40 -10 -55 -23z"/>
 <path d="M2846 1715 c-9 -24 -7 -113 2 -119 5 -3 50 -8 101 -12 108 -8 111 -6 111 74 0 48 -2 52 -24 52 -24 0 -36 -16 -36 -51 0 -35 -19 -19 -22 19 -2 29 -8 38 -25 40 -18 3 -23 -3 -29 -32 -8 -47 -22 -46 -26 2 -2 29 -8 38 -24 40 -13 2 -24 -4 -28 -13z"/>
 <path d="M2828 1555 c-11 -23 -8 -30 32 -70 l44 -45 -34 10 c-58 17 -70 13 -70 -18 0 -28 3 -30 93 -54 50 -13 98 -23 105 -20 25 9 12 56 -25 95 -29 29 -33 38 -18 34 72 -19 74 -18 81 9 4 17 2 29 -7 34 -11 7 -169 50 -184 50 -3 0 -11 -11 -17 -25z"/>
 <path d="M477 1315 c-48 -23 -90 -44 -93 -47 -3 -4 2 -20 11 -37 15 -31 16 -31 73 -25 l57 7 -25 -29 c-14 -16 -31 -34 -38 -41 -14 -12 -9 -68 8 -78 4 -3 49 14 99 37 74 35 90 47 91 66 0 31 -27 39 -64 18 l-31 -18 33 35 c30 31 32 38 22 57 -10 19 -18 21 -53 16 -34 -4 -38 -3 -18 5 38 15 49 28 44 49 -8 31 -24 29 -116 -15z"/>
 <path d="M2735 1260 c-16 -18 -16 -22 13 -79 l30 -60 -36 24 c-45 31 -59 31 -68 3 -3 -13 -13 -31 -21 -40 -10 -11 -13 -26 -9 -44 8 -32 -18 -67 -45 -59 -19 6 -52 -21 -46 -38 4 -12 170 -76 199 -76 10 -1 22 8 28 19 8 16 2 34 -34 100 -25 44 -42 80 -39 80 3 0 31 -16 63 -35 32 -19 65 -35 74 -35 26 0 30 44 7 88 -12 23 -21 43 -21 46 0 3 16 -4 36 -16 36 -21 37 -21 50 -3 22 29 17 38 -34 67 -26 15 -66 39 -88 52 -41 25 -42 25 -59 6z"/>
 <path d="M589 1085 c-41 -31 -76 -60 -77 -66 -6 -17 52 -99 71 -99 23 0 33 28 19 51 -21 34 -12 43 16 17 21 -21 31 -25 45 -17 21 12 22 27 1 50 -9 10 -13 23 -8 30 5 9 14 4 30 -16 19 -24 25 -27 38 -16 9 8 16 20 16 27 0 21 -51 94 -65 94 -6 0 -45 -25 -86 -55z"/>
 <path d="M675 956 c-76 -76 -77 -77 -59 -97 16 -17 26 -19 68 -14 l49 7 -23 -32 c-23 -32 -20 -58 6 -67 5 -2 43 30 84 72 73 74 74 74 55 95 -19 21 -21 21 -105 3 -24 -5 -24 -4 10 31 l34 36 -21 21 -21 22 -77 -77z"/>
 <path d="M2500 922 c-16 -17 -30 -39 -30 -50 0 -23 43 -83 93 -131 31 -29 39 -32 52 -21 23 19 19 34 -30 88 -42 47 -55 72 -37 72 4 0 30 -26 59 -57 l52 -58 22 22 22 22 -40 48 c-55 65 -73 80 -105 88 -22 6 -33 1 -58 -23z"/>
 <path d="M811 806 c-33 -41 -61 -78 -61 -83 0 -19 77 -84 93 -78 25 10 27 32 6 51 -10 9 -19 23 -19 31 0 11 7 9 29 -6 28 -20 28 -20 46 -1 18 20 18 21 -5 45 -27 28 -20 47 8 22 26 -23 49 -21 58 5 5 18 -1 29 -32 55 -22 18 -44 33 -50 33 -6 0 -39 -33 -73 -74z"/>
 <path d="M2421 843 c-19 -13 -22 -22 -18 -50 l6 -34 -19 23 -19 23 -21 -21 -22 -22 55 -73 c78 -107 76 -106 125 -60 31 28 42 46 42 67 -1 39 -30 76 -63 77 -24 2 -27 6 -27 39 0 45 -10 52 -39 31z m69 -146 c0 -21 -12 -28 -27 -16 -19 16 -16 29 7 29 11 0 20 -6 20 -13z"/>
 <path d="M957 753 c-13 -21 -37 -62 -53 -90 -27 -50 -28 -53 -11 -70 16 -16 20 -16 73 10 l56 28 -21 -34 c-12 -19 -21 -41 -21 -50 0 -13 20 -27 39 -27 9 0 111 164 111 179 0 6 -9 15 -20 21 -15 8 -30 5 -70 -15 -54 -27 -61 -24 -30 15 24 30 25 56 4 64 -27 10 -33 7 -57 -31z"/>
 <path d="M2236 719 c-17 -13 -26 -30 -26 -47 1 -29 68 -163 85 -169 6 -2 20 3 30 11 20 14 19 16 -12 74 -32 58 -43 99 -23 87 5 -3 23 -33 41 -65 32 -61 63 -78 76 -44 7 18 -41 124 -69 154 -24 26 -68 25 -102 -1z"/>
 <path d="M2102 654 c-12 -8 -22 -23 -22 -32 0 -14 -2 -15 -9 -2 -9 12 -17 12 -63 -2 -29 -9 -66 -19 -81 -22 -19 -5 -33 -18 -45 -43 l-17 -36 -5 29 c-4 20 -12 30 -28 32 -12 2 -24 -3 -27 -11 -6 -15 19 -205 29 -214 3 -3 17 -2 31 1 24 6 26 10 20 39 l-6 32 25 -27 c28 -31 76 -39 76 -12 0 9 -13 32 -30 51 -35 39 -35 39 -14 89 l17 39 22 -81 c12 -45 25 -86 28 -92 4 -6 27 -4 62 6 51 14 56 18 53 41 -3 23 -7 26 -35 24 -42 -4 -52 14 -13 22 26 6 31 11 28 33 -3 25 -6 27 -40 24 -21 -2 -38 2 -38 7 0 12 47 26 73 22 10 -1 27 5 37 14 19 17 22 11 65 -112 5 -16 37 -17 52 -2 9 9 5 30 -14 83 -39 109 -77 138 -131 100z"/>
 <path d="M1122 629 c-51 -53 -48 -126 9 -173 48 -41 139 -30 139 17 0 15 -18 21 -89 30 -22 3 -35 31 -27 60 8 35 51 47 74 22 16 -16 16 -17 -6 -5 -30 15 -52 6 -52 -20 0 -15 14 -27 56 -45 72 -32 89 -23 81 44 -11 96 -120 137 -185 70z"/>
 <path d="M1324 553 c14 -144 18 -163 38 -174 26 -14 33 -7 89 80 l50 76 -3 -90 -3 -90 27 -3 c25 -3 28 0 34 37 9 55 32 54 36 -1 3 -38 6 -43 29 -46 16 -2 29 3 32 12 5 12 10 157 8 204 -1 18 -48 15 -55 -4 -3 -9 -6 -27 -6 -40 0 -17 -6 -24 -19 -24 -16 0 -20 8 -23 43 l-3 42 -49 3 c-33 1 -52 -2 -60 -12 -16 -21 -66 -9 -66 15 0 10 -9 23 -19 29 -40 21 -44 14 -37 -57z"/>
 </g>
<g id="layer102" fill="#f9f9f9" stroke="none">
 <path d="M1325 3309 c-38 -4 -120 -8 -181 -9 -74 -1 -121 -7 -139 -16 -15 -8 -42 -14 -59 -14 -57 0 -202 -37 -263 -66 -88 -44 -131 -93 -197 -229 -32 -66 -74 -158 -92 -205 -19 -47 -41 -90 -49 -96 -7 -5 -13 -17 -12 -25 3 -20 -93 -281 -110 -301 -8 -9 -13 -20 -10 -25 3 -5 -6 -47 -20 -93 -76 -257 -118 -434 -163 -701 -26 -149 -24 -288 5 -334 56 -92 72 -114 128 -174 34 -36 110 -112 170 -168 59 -56 108 -106 108 -110 1 -15 31 -42 43 -37 7 3 21 -4 31 -16 10 -11 15 -20 10 -20 -4 0 -2 -7 5 -15 7 -8 16 -12 21 -9 11 7 139 -96 136 -110 -1 -6 4 -10 12 -8 16 3 43 -17 36 -28 -3 -4 2 -7 10 -6 7 0 14 -3 15 -9 3 -17 22 -35 31 -29 13 8 60 -27 52 -39 -3 -6 -1 -7 5 -3 13 8 104 -53 97 -64 -5 -8 20 -22 40 -24 6 -1 11 -5 12 -9 3 -13 37 -36 45 -31 11 7 50 -15 44 -25 -7 -10 52 -44 63 -36 5 3 13 0 17 -6 5 -8 3 -9 -6 -4 -9 5 -11 4 -6 -4 4 -6 11 -9 16 -6 13 8 52 -14 45 -24 -6 -10 21 -23 50 -25 11 -1 19 -7 17 -14 -2 -11 11 -16 31 -13 15 2 48 -20 42 -29 -5 -8 26 -23 50 -24 23 -2 74 -29 69 -37 -3 -5 1 -9 8 -10 7 0 33 -3 58 -6 25 -4 86 -7 135 -6 107 1 168 20 297 93 49 28 91 49 95 49 19 -3 34 2 29 10 -3 4 26 27 64 50 38 22 101 62 141 88 39 27 79 53 87 58 9 6 77 55 152 109 182 134 339 266 492 415 71 68 128 120 128 115 0 -4 15 7 34 25 19 18 32 39 30 46 -3 7 -1 16 4 19 14 9 49 82 67 141 23 76 29 190 15 280 -7 44 -13 101 -14 127 -1 26 -7 53 -13 59 -7 7 -13 22 -13 34 0 32 -94 398 -135 527 -70 216 -176 485 -275 693 -46 98 -67 130 -114 175 -31 30 -64 54 -72 52 -8 -2 -17 4 -20 13 -4 9 -13 14 -22 10 -8 -3 -20 -1 -26 4 -6 5 -27 11 -46 14 -98 14 -168 30 -193 44 -18 9 -40 13 -58 9 -16 -3 -73 1 -127 9 -53 8 -125 15 -159 15 -34 0 -65 5 -68 10 -7 12 -524 11 -630 -1z m645 -34 c130 -8 240 -21 395 -46 159 -27 206 -39 198 -52 -4 -7 0 -8 12 -3 22 8 57 -2 50 -15 -3 -5 1 -6 9 -3 20 7 58 -14 50 -28 -5 -7 -2 -8 5 -3 64 39 290 -449 441 -951 28 -90 49 -168 48 -172 0 -4 2 -14 5 -22 12 -28 46 -175 72 -310 18 -95 26 -171 27 -255 2 -142 -13 -203 -70 -290 -44 -67 -266 -290 -280 -281 -9 5 -64 -45 -64 -61 -1 -14 -87 -85 -97 -79 -10 6 -34 -18 -26 -26 6 -6 -175 -149 -310 -245 -202 -143 -528 -335 -630 -370 -69 -25 -236 -24 -284 0 -19 9 -39 17 -46 17 -6 0 -22 11 -35 25 -12 13 -26 22 -31 19 -9 -5 -120 53 -187 97 -24 16 -46 29 -49 29 -3 0 -21 11 -39 25 -18 14 -36 25 -39 25 -13 0 -270 180 -377 263 -142 110 -259 210 -253 216 9 8 -27 41 -45 41 -20 0 -275 258 -317 320 -56 84 -66 128 -60 248 6 119 74 486 104 562 3 8 7 27 9 41 7 53 105 363 165 521 76 202 204 489 224 504 8 6 12 14 8 17 -11 12 49 87 95 117 61 40 147 72 177 64 14 -3 38 1 55 10 32 15 237 41 435 54 128 8 504 7 655 -3z"/>
 <path d="M1605 3190 c-3 -11 -12 -21 -18 -21 -53 -6 -69 -3 -78 13 -8 15 -39 26 -39 14 0 -18 93 -186 103 -186 9 0 22 31 37 88 13 48 25 93 28 100 2 6 -3 12 -11 12 -9 0 -19 -9 -22 -20z m-15 -64 c0 -3 -5 -17 -11 -33 -10 -27 -11 -27 -25 -9 -21 29 -17 46 11 46 14 0 25 -2 25 -4z"/>
 <path d="M1678 3163 c0 -27 0 -56 1 -67 0 -10 -4 -25 -10 -32 -24 -29 -2 -45 53 -42 45 3 54 7 67 30 14 25 14 29 -7 57 -12 17 -18 31 -12 31 6 0 8 4 5 10 -3 5 2 21 11 35 16 24 15 25 -3 25 -12 0 -25 -11 -31 -26 -13 -28 -32 -24 -32 7 0 12 -7 19 -20 19 -17 0 -20 -7 -22 -47z m83 -69 c15 -19 2 -47 -26 -52 -25 -5 -37 11 -29 42 7 30 34 35 55 10z"/>
 <path d="M1837 3162 c14 -105 28 -157 43 -159 13 -3 99 127 108 164 5 17 -24 17 -31 0 -7 -19 -64 -10 -80 12 -6 10 -20 20 -29 24 -16 5 -17 1 -11 -41z m83 -54 c-1 -16 -28 -53 -34 -47 -2 2 -7 16 -11 32 -6 24 -5 27 19 27 14 0 26 -6 26 -12z"/>
 <path d="M1415 3190 c-3 -5 1 -34 9 -65 8 -30 10 -55 6 -55 -4 0 -22 23 -40 50 -18 28 -38 50 -45 50 -8 0 -15 -23 -20 -65 -3 -36 -10 -65 -14 -65 -4 0 -13 25 -20 55 -8 35 -18 55 -27 55 -8 0 -14 -2 -14 -5 0 -6 42 -179 44 -182 1 -1 12 0 24 4 17 4 22 13 23 42 0 20 3 54 7 76 l7 40 24 -33 c13 -18 21 -36 17 -39 -10 -10 28 -63 45 -63 29 0 39 22 29 65 -5 21 -7 42 -4 46 2 4 0 10 -5 13 -5 3 -12 21 -15 41 -7 36 -21 52 -31 35z"/>
 <path d="M2002 3071 c-37 -110 -27 -120 53 -54 31 25 58 43 61 41 5 -6 -26 -99 -40 -117 -8 -12 -8 -13 2 -7 7 4 20 2 29 -6 9 -7 14 -8 11 -3 -4 6 7 51 23 100 16 50 29 91 29 92 0 2 -8 3 -18 3 -9 0 -39 -18 -66 -40 -26 -22 -52 -40 -57 -40 -4 0 1 25 12 57 23 67 22 63 5 63 -9 0 -25 -33 -44 -89z"/>
 <path d="M1148 3103 c-21 -9 -38 -21 -38 -27 0 -6 14 -46 30 -89 17 -43 28 -82 25 -87 -3 -4 17 3 45 16 52 25 69 51 26 40 -15 -4 -28 0 -36 9 -10 12 -7 17 14 26 34 16 37 55 4 44 -46 -14 -63 -11 -66 12 -2 16 4 26 22 35 14 6 26 17 26 25 0 16 -4 15 -52 -4z"/>
 <path d="M2260 3073 c-43 -7 -69 -25 -86 -61 -38 -80 39 -167 120 -136 23 9 9 24 -22 24 -33 0 -68 22 -74 48 -9 31 18 81 46 88 33 8 76 -19 76 -46 0 -24 -9 -25 -36 -5 -27 20 -34 18 -32 -9 1 -15 12 -29 26 -35 17 -8 21 -8 16 0 -5 8 -1 8 14 0 11 -6 25 -11 31 -11 17 0 23 43 11 75 -11 30 -49 76 -59 74 -3 -1 -17 -4 -31 -6z"/>
 <path d="M1010 3037 c-17 -9 -25 -21 -25 -40 0 -33 18 -37 25 -5 7 28 38 36 47 12 3 -9 -1 -31 -11 -48 -9 -18 -15 -46 -13 -66 4 -33 7 -35 44 -38 47 -4 63 12 56 51 -7 34 -21 35 -33 1 -6 -14 -16 -24 -23 -22 -18 7 -20 43 -2 58 23 19 19 76 -7 94 -27 19 -26 19 -58 3z"/>
 <path d="M1545 2806 c-66 -23 -137 -50 -158 -59 -21 -9 -44 -14 -51 -11 -8 3 -22 -3 -32 -14 -11 -11 -44 -32 -74 -47 -30 -15 -72 -38 -92 -51 -21 -13 -41 -24 -45 -23 -18 3 -33 -2 -31 -10 2 -4 -37 -40 -87 -78 -109 -85 -235 -214 -235 -240 0 -10 -6 -25 -12 -31 -7 -7 -14 -35 -15 -62 -1 -27 -5 -55 -9 -62 -4 -6 -8 -21 -9 -32 -1 -12 -8 -82 -15 -156 -26 -274 6 -588 70 -678 17 -24 28 -47 26 -51 -3 -4 10 -23 29 -41 19 -19 35 -30 35 -26 0 9 135 -114 135 -123 1 -14 17 -31 26 -26 12 8 129 -76 122 -88 -3 -6 -1 -7 5 -3 15 9 54 -12 47 -25 -6 -8 8 -13 28 -10 14 2 48 -20 43 -28 -3 -4 5 -7 17 -7 13 1 21 -4 19 -11 -2 -12 11 -18 33 -13 18 3 104 -43 98 -53 -3 -6 -1 -7 6 -3 16 10 53 -3 45 -16 -4 -7 -2 -8 5 -4 14 9 53 -2 46 -14 -5 -9 31 -20 85 -25 19 -2 46 -8 59 -13 28 -10 57 -3 206 53 184 69 422 202 527 294 21 18 41 30 46 27 10 -6 145 128 137 136 -4 3 12 30 34 59 23 30 41 61 41 70 0 9 3 19 8 23 4 4 7 17 8 29 2 46 16 127 24 132 10 6 7 466 -3 482 -4 7 -9 36 -11 65 -2 29 -6 60 -9 68 -3 8 -13 49 -22 90 -22 96 -39 124 -136 213 -78 73 -270 217 -289 217 -5 0 -24 13 -42 29 -42 36 -71 51 -98 51 -12 0 -39 8 -59 19 -50 26 -80 38 -126 52 -22 6 -44 15 -49 20 -6 5 -17 9 -25 9 -9 0 -28 7 -43 14 -61 32 -106 28 -233 -18z m198 -19 c-4 -7 1 -8 12 -3 22 8 57 -2 50 -15 -6 -8 12 -13 44 -11 48 2 302 -121 442 -213 128 -85 295 -244 309 -293 72 -257 85 -633 30 -890 -14 -65 -69 -139 -182 -248 -157 -151 -409 -297 -656 -381 -95 -32 -115 -36 -132 -26 -11 7 -31 13 -44 13 -14 0 -28 4 -31 10 -3 6 -13 10 -22 10 -14 0 -66 20 -105 41 -10 5 -25 9 -33 9 -8 0 -24 9 -35 20 -25 25 -114 70 -138 70 -11 0 -30 8 -43 18 -13 10 -36 24 -51 31 -49 25 -198 143 -264 208 -143 143 -162 187 -185 418 -19 194 7 569 42 611 5 6 7 13 4 16 -3 2 2 27 10 55 12 40 31 66 90 126 181 182 407 314 713 417 97 33 117 37 147 27 19 -5 31 -15 28 -20z"/>
 <path d="M1535 2726 c-288 -105 -476 -217 -646 -387 l-77 -77 -22 -92 c-49 -212 -62 -455 -35 -656 27 -197 35 -214 175 -354 104 -105 216 -185 372 -265 65 -34 115 -65 111 -70 -5 -4 -3 -5 4 -2 6 4 49 -7 95 -24 174 -65 162 -64 279 -24 129 44 339 147 439 214 113 76 231 182 293 263 66 86 78 131 98 347 17 186 -6 445 -56 616 -12 42 -29 65 -102 136 -97 95 -184 162 -278 215 -34 18 -70 43 -80 54 -10 11 -30 20 -45 20 -14 0 -35 7 -46 15 -10 8 -26 15 -35 15 -9 0 -28 9 -42 20 -14 11 -36 20 -50 20 -13 0 -30 7 -37 15 -7 8 -27 15 -44 15 -18 0 -36 4 -41 9 -6 6 -32 12 -60 15 -42 5 -68 -1 -170 -38z m182 18 c13 -4 21 -10 18 -14 -3 -4 4 -10 15 -13 11 -3 18 -1 15 3 -3 5 22 0 55 -12 33 -11 58 -23 55 -28 -3 -4 4 -10 15 -13 11 -3 18 -1 15 4 -3 4 8 3 25 -2 16 -6 27 -15 24 -20 -5 -9 10 -13 30 -10 16 4 86 -31 81 -40 -5 -8 33 -25 48 -21 16 4 47 -19 41 -30 -4 -7 -3 -8 4 -4 15 9 54 -12 47 -24 -3 -6 0 -7 8 -4 19 7 157 -99 249 -191 70 -70 76 -80 91 -143 58 -247 69 -462 36 -702 -6 -41 -13 -79 -17 -84 -3 -6 -7 -21 -8 -34 -9 -86 -236 -297 -451 -420 -95 -55 -269 -131 -369 -162 -63 -19 -63 -19 -126 2 -35 11 -70 27 -79 34 -8 8 -26 14 -38 14 -13 0 -35 6 -49 14 -15 7 -62 30 -105 50 -43 20 -75 41 -72 46 3 5 -7 12 -22 16 -35 7 -40 9 -82 35 -100 60 -250 193 -318 281 -38 50 -47 72 -64 151 -40 192 -35 486 12 706 25 117 46 150 159 249 168 148 338 242 610 338 100 35 112 37 147 28z"/>
 <path d="M1670 2669 c-28 -17 -215 -82 -237 -81 -13 0 -23 -4 -23 -9 0 -5 -26 -21 -57 -35 -55 -25 -57 -27 -31 -34 14 -4 48 -3 75 3 52 11 68 11 158 2 41 -4 68 -2 85 8 22 11 31 11 70 -7 33 -15 62 -20 110 -17 98 4 120 3 182 -4 91 -12 104 1 36 36 -31 16 -59 33 -63 39 -3 5 -16 10 -29 10 -12 0 -26 4 -31 8 -6 5 -30 14 -55 21 -25 7 -52 19 -60 27 -15 13 -95 45 -109 43 -3 0 -13 -4 -21 -10z"/>
 <path d="M1195 2459 c-27 -18 -69 -47 -92 -66 -24 -19 -47 -32 -51 -29 -5 3 -20 -6 -32 -19 -13 -14 -20 -25 -16 -25 5 0 3 -6 -3 -14 -9 -11 -8 -15 5 -20 25 -10 146 -7 187 5 31 8 47 7 78 -5 49 -20 119 -20 165 -1 32 13 69 11 60 -4 -9 -14 104 -11 139 3 33 14 39 14 68 -2 25 -13 57 -17 149 -17 80 0 121 -4 129 -12 19 -19 59 -16 106 7 35 17 49 18 99 10 62 -11 162 -4 185 11 16 11 -22 49 -126 127 -33 24 -59 48 -58 53 2 5 -8 9 -21 9 -14 0 -28 5 -31 11 -5 6 -12 4 -20 -7 -15 -21 -130 -33 -148 -15 -7 7 -44 9 -113 4 -78 -4 -107 -3 -119 7 -22 18 -252 20 -324 3 -54 -13 -127 -8 -137 8 -9 15 -27 10 -79 -22z"/>
 <path d="M923 2227 c-18 -20 -43 -88 -43 -116 0 -8 212 -11 805 -11 443 0 805 1 805 3 -1 24 -33 114 -45 127 -15 17 -20 17 -58 4 -57 -20 -153 -28 -204 -16 -31 7 -53 6 -80 -3 -25 -8 -61 -10 -108 -5 -38 4 -108 5 -155 3 -82 -5 -113 1 -152 29 -13 9 -31 8 -84 -5 -50 -12 -71 -13 -81 -5 -9 7 -30 8 -61 3 -77 -13 -187 -11 -205 4 -11 8 -27 10 -49 5 -38 -8 -242 -9 -256 0 -5 3 -18 -5 -29 -17z"/>
 <path d="M852 1958 c-2 -35 -7 -67 -13 -72 -11 -12 -12 -283 0 -290 5 -3 12 -41 17 -83 l8 -78 6 50 5 50 88 3 87 3 -2 237 -3 237 -95 3 -95 3 -3 -63z"/>
 <path d="M1168 1986 c35 -12 60 -25 55 -30 -4 -5 1 -6 13 -2 26 8 56 -2 48 -16 -4 -6 1 -8 13 -4 10 3 52 -5 93 -19 70 -24 85 -25 294 -25 l221 0 180 59 180 59 -580 0 -580 0 63 -22z"/>
 <path d="M2310 1786 c0 -123 -3 -232 -7 -241 -6 -16 3 -17 90 -13 l97 4 1 -56 c1 -83 14 -35 29 105 12 113 10 264 -6 378 l-7 47 -98 0 -99 0 0 -224z"/>
 <path d="M1187 1894 c-4 -4 -7 -58 -7 -120 l0 -114 40 3 40 2 0 108 c0 105 0 107 -23 107 -13 0 -28 5 -33 10 -6 6 -13 7 -17 4z"/>
 <path d="M2138 1883 c-16 -4 -18 -18 -18 -108 0 -109 3 -115 51 -115 18 0 19 8 19 115 0 123 1 122 -52 108z"/>
 <path d="M1330 1774 c0 -62 1 -65 23 -62 19 3 22 10 25 57 2 37 -1 57 -10 62 -31 20 -38 10 -38 -57z"/>
 <path d="M1998 1829 c-14 -8 -18 -23 -18 -69 l0 -60 35 0 35 0 0 70 c0 60 -2 70 -17 70 -10 0 -26 -5 -35 -11z"/>
 <path d="M1472 1783 l3 -38 208 -3 208 -2 -3 37 -3 38 -208 3 -208 2 3 -37z"/>
 <path d="M1305 1608 c-82 -27 -159 -53 -170 -58 -12 -5 215 -9 550 -9 448 1 563 3 538 12 -17 7 -35 15 -39 20 -4 4 -16 7 -27 7 -11 0 -28 7 -38 16 -9 8 -36 17 -60 19 -24 2 -71 13 -103 25 -53 18 -82 20 -280 19 l-221 -1 -150 -50z"/>
 <path d="M939 1423 c-13 -7 -34 -13 -46 -13 -20 0 -21 -3 -13 -26 6 -14 8 -30 4 -35 -3 -5 -1 -8 3 -7 5 2 35 -27 66 -64 62 -73 173 -166 266 -223 33 -21 58 -42 55 -46 -5 -8 9 -13 28 -10 17 2 208 -96 201 -104 -4 -4 -2 -5 5 -1 14 8 114 -22 108 -33 -2 -3 14 -7 37 -8 57 -2 178 38 322 107 187 90 313 181 430 311 33 36 63 65 67 62 4 -2 5 2 2 10 -3 8 -1 18 5 22 27 16 10 41 -34 53 -97 26 -182 16 -390 -44 l-192 -57 -39 -156 c-21 -86 -42 -162 -47 -168 -6 -9 -36 -13 -87 -13 -63 0 -80 3 -94 19 -10 11 -35 87 -55 168 l-37 148 -46 15 c-26 8 -50 18 -54 23 -4 4 -20 7 -34 7 -15 0 -33 7 -40 15 -7 9 -21 13 -31 10 -9 -3 -20 -1 -24 5 -3 6 -10 8 -15 5 -4 -2 -30 2 -56 11 -69 22 -233 32 -265 17z"/>
 <path d="M1290 1433 c0 -1 27 -10 60 -19 36 -10 57 -21 53 -27 -4 -7 0 -8 11 -4 22 9 98 -12 90 -24 -3 -5 5 -8 17 -6 20 2 24 -9 59 -145 20 -81 40 -153 43 -161 4 -10 20 -13 63 -11 l59 3 38 153 c21 84 42 157 47 161 4 5 61 24 125 43 65 18 119 35 121 36 1 2 -175 3 -392 3 -217 0 -394 -1 -394 -2z"/>
 <path d="M2752 2651 c-14 -8 -102 -148 -102 -161 0 -30 24 -10 59 50 23 39 45 70 50 70 4 0 14 -11 21 -25 7 -14 19 -25 27 -25 19 0 16 10 -15 57 -18 27 -32 39 -40 34z"/>
 <path d="M577 2632 c-21 -23 -18 -82 4 -82 12 0 14 7 11 30 -3 21 0 32 13 36 27 11 39 -10 26 -47 -9 -26 -8 -37 5 -56 12 -19 22 -24 52 -21 30 2 38 8 46 31 7 19 7 34 0 45 -16 25 -29 16 -26 -17 3 -30 -15 -45 -38 -31 -9 6 -11 20 -6 49 5 33 2 45 -14 61 -25 25 -52 26 -73 2z"/>
 <path d="M479 2481 c-20 -39 -22 -48 -10 -47 9 1 24 14 34 29 14 23 20 26 37 17 24 -13 24 -13 5 -50 -20 -40 4 -47 28 -8 14 24 20 27 37 18 23 -12 25 -23 8 -50 -9 -15 -10 -22 -1 -31 9 -9 17 -1 33 31 24 47 19 61 -34 86 -17 7 -44 23 -61 33 -16 11 -34 20 -40 20 -5 1 -22 -21 -36 -48z"/>
 <path d="M437 2383 c-14 -13 -6 -24 28 -40 19 -9 35 -20 35 -23 0 -4 -23 -11 -52 -16 -74 -13 -79 -38 -6 -29 55 7 55 7 77 -28 12 -19 20 -41 19 -49 -2 -7 6 -13 17 -13 13 0 21 8 23 23 2 12 -1 22 -6 22 -5 0 -21 18 -36 40 -28 43 -24 48 29 26 28 -12 34 -12 39 -1 6 16 -10 30 -46 39 -14 3 -40 17 -56 31 -30 25 -52 31 -65 18z"/>
 <path d="M2873 2371 c-25 -25 -79 -52 -95 -46 -7 3 -20 0 -28 -5 -13 -8 -13 -11 2 -26 15 -16 22 -14 97 21 45 21 81 41 81 45 0 8 -22 30 -32 30 -4 0 -15 -8 -25 -19z"/>
 <path d="M2869 2281 c-1 -3 -2 -10 -4 -16 -1 -5 -3 -18 -3 -27 -2 -22 -25 -23 -42 -3 -7 8 -21 15 -32 15 -15 0 -19 -6 -16 -27 3 -24 7 -27 47 -29 59 -3 72 -19 28 -33 -19 -7 -37 -20 -40 -31 -4 -17 3 -16 82 12 113 41 113 40 91 87 -11 20 -25 42 -32 48 -14 11 -77 14 -79 4z m75 -43 c9 -12 16 -26 16 -29 0 -6 -54 -29 -66 -29 -10 0 -3 57 8 68 17 17 25 15 42 -10z"/>
 <path d="M396 2205 c-3 -9 -13 -15 -22 -13 -37 7 -36 -151 1 -178 28 -20 108 -18 135 4 31 25 37 96 11 138 -31 51 -112 82 -125 49z m86 -52 c10 -9 18 -30 18 -46 0 -66 -70 -91 -110 -40 -22 28 -21 63 2 90 15 18 68 16 90 -4z"/>
 <path d="M2904 2095 c-4 -9 -2 -21 5 -28 6 -6 11 -19 11 -30 0 -14 -6 -18 -27 -15 -22 2 -29 9 -31 31 -6 51 -28 30 -29 -28 -1 -40 2 -55 12 -55 8 0 17 5 21 11 3 6 18 9 32 6 14 -3 33 -1 41 3 9 5 33 12 55 15 36 6 38 8 32 37 -3 17 -6 39 -6 49 0 11 -7 19 -16 19 -13 0 -15 -7 -11 -36 4 -25 2 -37 -9 -41 -20 -7 -42 14 -46 44 -4 31 -25 42 -34 18z"/>
 <path d="M300 1959 c0 -3 9 -14 20 -24 15 -14 30 -16 66 -12 67 7 84 0 84 -35 0 -45 24 -29 28 19 3 35 0 42 -20 49 -26 9 -178 12 -178 3z"/>
 <path d="M2885 1915 c-19 -18 -25 -35 -25 -69 0 -25 5 -48 11 -51 6 -4 8 -13 5 -21 -7 -19 21 -30 73 -29 36 1 49 7 72 33 35 39 39 94 9 132 -26 34 -36 19 -20 -30 19 -57 3 -89 -42 -86 -47 4 -46 4 -58 25 -11 21 -3 81 11 81 5 0 9 -16 9 -35 0 -24 5 -35 15 -35 12 0 15 13 15 55 0 52 -1 55 -25 55 -14 0 -37 -11 -50 -25z"/>
 <path d="M421 1815 c-29 -14 -57 -22 -62 -20 -11 8 -45 -27 -51 -53 -4 -12 -2 -20 3 -16 15 9 80 -16 73 -28 -4 -7 -2 -8 5 -4 13 8 53 -2 47 -12 -2 -4 11 -8 30 -9 38 -2 44 11 14 29 -25 16 -29 92 -5 102 15 5 22 37 8 35 -5 0 -32 -11 -62 -24z m7 -64 c3 -19 0 -21 -25 -15 -38 9 -41 13 -18 30 25 18 39 13 43 -15z"/>
 <path d="M2853 1683 c-17 -36 -17 -84 0 -77 7 2 51 0 97 -5 47 -5 86 -9 86 -8 1 1 4 24 5 51 3 33 0 51 -8 53 -8 3 -13 -4 -13 -19 0 -33 -14 -51 -36 -46 -15 3 -18 11 -16 36 1 23 -2 32 -13 32 -10 0 -15 -10 -15 -29 0 -31 -19 -45 -46 -34 -12 4 -15 14 -11 39 7 42 -12 46 -30 7z"/>
 <path d="M398 1623 c-55 -10 -78 -19 -78 -29 0 -11 10 -14 38 -12 27 2 36 -1 34 -11 -1 -7 3 -20 9 -27 15 -19 3 -31 -35 -36 -22 -2 -30 -9 -31 -25 -1 -15 2 -20 9 -14 14 11 126 30 142 24 15 -5 37 23 29 37 -4 6 -13 9 -21 6 -27 -10 -64 12 -64 38 0 19 6 25 35 30 21 4 35 13 35 21 0 18 -2 17 -102 -2z"/>
 <path d="M2840 1547 c0 -7 21 -36 46 -65 26 -29 44 -56 41 -59 -3 -3 -20 0 -38 6 -42 15 -82 14 -77 -1 2 -6 21 -16 42 -22 21 -6 35 -13 33 -16 -3 -3 12 -6 34 -6 22 -1 46 -7 52 -13 18 -18 24 -13 21 15 -1 15 -21 46 -45 70 -24 24 -40 47 -36 50 4 4 28 2 54 -3 26 -6 51 -9 55 -7 19 12 4 24 -47 35 -31 7 -58 16 -61 21 -8 13 -74 9 -74 -5z"/>
 <path d="M478 1300 c-83 -43 -91 -50 -82 -74 7 -18 54 -22 71 -5 5 5 29 9 51 7 l41 -3 -49 -55 c-38 -43 -46 -58 -39 -72 5 -10 11 -18 13 -18 2 0 40 18 85 40 58 29 79 44 75 55 -5 12 -14 10 -56 -11 -27 -14 -53 -23 -56 -19 -3 3 13 25 36 48 58 59 56 71 -13 65 -31 -3 -58 -1 -61 4 -3 4 16 18 41 30 41 20 53 38 29 44 -5 2 -44 -15 -86 -36z"/>
 <path d="M2734 1259 c-3 -6 11 -42 31 -80 20 -39 34 -73 31 -76 -3 -3 -26 7 -52 22 -31 18 -49 24 -56 17 -7 -7 -2 -16 16 -27 14 -10 23 -21 20 -26 -3 -5 1 -10 8 -10 7 -1 20 -2 28 -3 8 0 14 -7 12 -14 -1 -8 2 -11 8 -7 15 9 52 -14 44 -28 -4 -7 2 -4 14 7 l21 18 -32 64 c-17 35 -28 66 -25 70 4 3 27 -6 53 -21 25 -15 49 -25 52 -22 10 11 -6 37 -29 47 -13 6 -36 19 -53 30 -59 37 -85 49 -91 39z"/>
 <path d="M593 1068 c-71 -51 -73 -52 -58 -75 9 -13 13 -29 9 -35 -4 -6 -3 -8 4 -4 6 3 13 2 17 -4 3 -5 13 -10 21 -10 13 0 12 5 -3 30 -16 28 -16 31 -1 46 18 18 42 10 34 -11 -8 -22 19 -38 34 -21 9 12 9 20 -4 38 -21 29 -20 35 5 48 17 9 23 8 35 -7 7 -10 11 -24 9 -31 -4 -10 0 -10 16 -2 11 6 17 16 13 23 -19 32 -46 67 -52 67 -4 -1 -40 -24 -79 -52z"/>
 <path d="M2664 1069 c8 -40 -24 -84 -62 -84 -37 0 -38 -21 -2 -29 18 -3 29 -10 25 -16 -3 -5 2 -11 12 -11 27 -3 56 -5 71 -7 7 -1 10 -7 6 -13 -7 -12 34 -3 50 11 10 10 -81 180 -96 180 -6 0 -8 -12 -4 -31z m56 -111 c0 -6 -11 -7 -27 -3 -36 9 -37 9 -22 36 l12 23 18 -23 c11 -13 19 -28 19 -33z"/>
 <path d="M686 941 c-37 -38 -64 -71 -60 -74 14 -8 58 -12 69 -6 18 11 85 20 85 12 -1 -4 -21 -28 -45 -52 -24 -25 -42 -48 -39 -53 13 -20 45 -3 104 57 60 60 63 66 48 81 -14 14 -23 15 -62 5 -25 -6 -57 -11 -73 -11 l-27 0 44 45 c29 30 41 48 34 55 -6 6 -33 -13 -78 -59z"/>
 <path d="M2510 910 c-11 -11 -20 -31 -20 -43 0 -30 101 -144 118 -133 9 5 -3 26 -38 68 -27 33 -50 63 -50 68 0 4 7 13 15 20 14 11 23 6 66 -36 27 -27 47 -55 44 -62 -3 -9 2 -12 18 -10 24 3 39 48 16 48 -7 0 -34 23 -59 50 -51 55 -78 62 -110 30z"/>
 <path d="M823 797 c-54 -63 -59 -74 -47 -88 8 -9 12 -18 9 -21 -3 -3 4 -13 15 -23 16 -15 22 -16 35 -5 14 12 14 15 -5 35 -23 24 -25 36 -8 53 8 8 18 6 39 -9 19 -13 30 -16 34 -8 4 6 -2 17 -14 25 -25 18 -27 37 -6 54 11 9 19 8 37 -4 49 -34 52 -4 4 36 l-32 27 -61 -72z"/>
 <path d="M2424 826 c-4 -10 -4 -37 0 -62 3 -26 2 -44 -4 -44 -6 0 -10 3 -10 8 -1 4 -10 18 -21 31 -14 18 -23 21 -31 13 -8 -8 4 -31 46 -87 l57 -76 32 27 c18 15 35 35 39 45 11 28 -11 67 -44 81 -18 8 -28 20 -28 34 0 12 -7 27 -15 34 -12 10 -16 9 -21 -4z m80 -118 c8 -13 6 -22 -9 -38 l-20 -22 -23 27 c-18 22 -20 30 -11 41 15 19 49 14 63 -8z"/>
 <path d="M945 701 c-26 -45 -51 -78 -57 -75 -6 4 -8 -2 -6 -12 7 -36 70 -30 114 11 35 33 59 34 43 3 -7 -13 -20 -35 -31 -50 -12 -17 -15 -29 -8 -33 6 -4 8 -11 5 -16 -4 -5 1 -9 10 -9 9 0 14 4 10 9 -3 5 16 44 41 86 60 99 51 115 -38 68 -34 -18 -64 -30 -67 -27 -4 4 7 27 43 86 7 12 7 21 0 28 -8 8 -24 -11 -59 -69z"/>
 <path d="M2252 714 c-28 -19 -28 -53 -2 -104 11 -22 19 -43 18 -47 -6 -23 15 -53 37 -53 28 0 26 9 -20 100 -27 53 -27 80 0 80 18 0 67 -72 71 -103 1 -12 3 -25 3 -29 1 -5 10 -8 21 -8 48 0 30 68 -37 140 -42 44 -57 48 -91 24z"/>
 <path d="M1134 616 c-31 -31 -34 -39 -32 -86 1 -28 8 -56 16 -62 28 -23 151 -21 137 2 -3 6 -24 10 -45 10 -66 0 -99 68 -58 117 25 31 108 6 108 -33 0 -18 -9 -18 -31 2 -18 16 -49 13 -49 -5 0 -7 19 -17 98 -48 25 -10 14 73 -14 106 -37 44 -84 43 -130 -3z"/>
 <path d="M2106 634 c-9 -8 -16 -22 -16 -30 0 -20 27 -18 39 4 9 15 11 15 24 2 21 -22 59 -129 50 -143 -4 -7 2 -5 13 3 10 8 20 15 22 16 1 0 -9 31 -23 68 -14 37 -22 72 -19 78 4 6 2 8 -4 4 -6 -3 -13 -2 -17 4 -9 15 -52 12 -69 -6z"/>
 <path d="M2020 609 c-8 -4 -22 -10 -31 -12 -22 -7 -33 -55 -17 -74 7 -9 20 -39 28 -67 17 -54 26 -58 87 -35 29 11 20 33 -10 25 -23 -6 -47 9 -47 29 0 7 14 18 31 24 41 14 28 34 -17 25 -21 -4 -34 -2 -34 4 0 6 -3 17 -6 25 -3 10 5 18 25 25 17 6 31 15 31 20 0 14 -23 21 -40 11z"/>
 <path d="M1342 528 c11 -91 21 -131 34 -135 6 -2 36 35 68 82 46 70 53 87 41 92 -10 3 -22 -2 -31 -15 -9 -14 -21 -18 -36 -15 -29 7 -58 32 -58 50 0 7 -6 13 -13 13 -11 0 -12 -15 -5 -72z m78 -30 c-1 -14 -24 -48 -32 -48 -8 0 -18 42 -12 52 8 13 44 9 44 -4z"/>
 <path d="M1900 555 c-6 -14 -14 -36 -20 -50 -14 -38 -30 -30 -30 15 0 32 -4 40 -18 40 -14 0 -19 -8 -19 -32 0 -18 4 -38 9 -45 5 -6 10 -37 11 -67 1 -51 3 -56 24 -56 19 0 23 5 23 33 0 18 -5 38 -12 45 -6 6 -9 15 -5 19 4 3 23 -12 42 -35 23 -26 41 -39 51 -35 11 4 6 14 -21 44 -39 44 -43 61 -17 87 21 21 24 62 5 62 -8 0 -18 -11 -23 -25z"/>
 <path d="M1520 516 c0 -25 -4 -48 -10 -51 -12 -7 -14 -115 -2 -115 17 0 32 25 32 55 0 39 3 43 37 38 26 -4 28 -7 24 -49 -3 -43 -2 -44 20 -35 23 8 24 14 26 100 2 83 1 92 -15 89 -13 -3 -16 -12 -14 -36 2 -22 -2 -34 -12 -38 -25 -10 -46 15 -46 52 0 27 -4 34 -20 34 -17 0 -20 -7 -20 -44z"/>
 </g>

</svg>